# xmcd
#
# Track frame offsets:
#       150
#       3399
#       16195
#       30301
#       40945
#       62623
#       77124
#       103262
#       119724
#       134888
#       144703
#       159959
#       175528
#       182731
#       197917
#       213235
#
# Disc length: 3125 seconds
#
# Revision: 1
# Processed by: cddbd v1.5.1PL0 Copyright (c) Steve Scherf et al.
# Submitted via: MusiCat 1.1
#
DISCID=db0c3310
DTITLE=Coral Araraquarense - 20 anos/Ao vivo
DYEAR=1900
DGENRE=
TTITLE0=Quanta emoção! Parabéns a você
TTITLE1=Emoções
TTITLE2=Perfídia
TTITLE3=Gostoso demais
TTITLE4=Yesterday
TTITLE5=Ponta de areia
TTITLE6=Io che amo solo te/Al di lá
TTITLE7=Chuá chuá
TTITLE8=Perhaps love
TTITLE9=Ronda
TTITLE10=Xote das meninas
TTITLE11=El reloj
TTITLE12=Rua augusta
TTITLE13=Cualdo caliente el sol
TTITLE14=Jura
TTITLE15=El dia que me quieras
EXTD=\n\n
EXTT0=
EXTT1=
EXTT2=
EXTT3=
EXTT4=
EXTT5=
EXTT6=
EXTT7=
EXTT8=
EXTT9=
EXTT10=
EXTT11=
EXTT12=
EXTT13=
EXTT14=
EXTT15=
PLAYORDER=
